# xmcd
#
# Track frame offsets: 
#        150
#        16660
#        32002
#        48657
#        65600
#        83450
#        102352
#        119187
#        140160
#        154345
#        168572
#        186862
#        211992
#        227490
#        249257
#        261690
#        279160
#        293112
#
# Disc length: 4061 seconds
#
# Revision: 9
# Processed by: cddbd v1.5.2PL0 Copyright (c) Steve Scherf et al.
# Submitted via: ExactAudioCopy v1.3
#
DISCID=080fdb12
DTITLE=Various Artist - The best blues album in the world... ever! [CD1)
DYEAR=2000
DGENRE=Blues
TTITLE0=Johnny Winter - Illustrated man
TTITLE1=Albert Collins - Frosty
TTITLE2=John Hammond - I've got love if you want it
TTITLE3=B.B. King - Three o'clock blues
TTITLE4=Charlie Musselwhite - Can't stay away
TTITLE5=Duke Robillard - Don't get me shook up
TTITLE6=The Boneshakers - Cold sweat
TTITLE7=Larry McCray - Me and my baby
TTITLE8=Colin James - No more doggin
TTITLE9=The Kinsey Report - Too early to tell
TTITLE10=Pops Staples - I shall not be moved
TTITLE11=Terry Evans - Get your lies straight
TTITLE12=Hadda Brooks - Need a little sugar in my bowl
TTITLE13=Roy Rogers - Down here in the real big empty
TTITLE14=Elmore James - Dust my broom
TTITLE15=Solomon Burke - Today is your birthday
TTITLE16=Lowell Fulsom - Tramp
TTITLE17=Big Maybelle - So good to my baby
EXTD=
EXTT0=
EXTT1=
EXTT2=
EXTT3=
EXTT4=
EXTT5=
EXTT6=
EXTT7=
EXTT8=
EXTT9=
EXTT10=
EXTT11=
EXTT12=
EXTT13=
EXTT14=
EXTT15=
EXTT16=
EXTT17=
PLAYORDER=
